<svg width="155" height="28" fill="none" xmlns="http://www.w3.org/2000/svg"><path d="M34 25V3h8.05c1.586 0 2.947.272 4.024.762s1.87 1.144 2.38 2.015c.51.872.794 1.797.794 2.832 0 1.416-.397 2.56-1.19 3.376-.794.817-1.758 1.362-2.891 1.688.85.164 1.644.49 2.324.98a5.454 5.454 0 0 1 1.644 1.906 5.31 5.31 0 0 1 .623 2.505c0 1.09-.283 2.124-.85 3.05-.567.926-1.417 1.633-2.494 2.178-1.134.545-2.494.817-4.081.817H34V25Zm2.778-12.361h5.101c1.474 0 2.608-.327 3.344-.98.794-.654 1.19-1.58 1.19-2.778 0-1.089-.396-2.015-1.19-2.668-.736-.654-1.927-1.035-3.457-1.035h-4.988v7.46Zm0 10.183h5.271c1.587 0 2.778-.327 3.628-1.035.85-.708 1.304-1.688 1.304-2.94 0-1.253-.454-2.233-1.36-2.996-.908-.762-2.098-1.143-3.629-1.143h-5.214v8.114ZM56.163 25V3h7.426c1.814 0 3.23.272 4.364.871 1.134.545 1.984 1.362 2.495 2.342.566.98.793 2.07.793 3.267 0 1.362-.397 2.614-1.134 3.758-.793 1.089-1.984 1.906-3.627 2.341l4.988 9.476h-3.231l-4.648-9.095h-4.705v9.095h-2.72V25Zm2.72-11.163h4.479c1.757 0 3.06-.436 3.854-1.253s1.19-1.851 1.19-3.158-.396-2.342-1.19-3.104c-.793-.763-2.097-1.144-3.91-1.144h-4.422v8.659ZM78.044 25V3h14.17v2.178h-11.45v7.678h10.43v2.124h-10.43v7.842h11.45V25h-14.17ZM98.96 25V3h14.171v2.178h-11.45v7.678h10.43v2.124h-10.43v7.842h11.45V25H98.96ZM118.855 25v-2.07l11.281-17.643h-11.11V3h14.341v2.07L122.03 22.712h11.45V25h-14.625ZM139.829 25V3H154v2.178h-11.45v7.678h10.486v2.124h-10.429v7.842h11.45V25h-14.228Z" fill="#000"/><g clip-path="url(#a)" stroke="#000" stroke-width="3" stroke-miterlimit="10"><path d="M32.556 8.028c-6.108 0-6.108-3.64-12.17-3.64-6.108 0-6.108 3.64-12.17 3.64-6.063 0-6.108-3.64-12.17-3.64M32.556 15.668c-6.108 0-6.108-3.64-12.17-3.64-6.108 0-6.108 3.64-12.17 3.64-6.063 0-6.108-3.64-12.17-3.64M32.556 23.307c-6.108 0-6.108-3.64-12.17-3.64-6.108 0-6.108 3.64-12.17 3.64-6.063 0-6.108-3.64-12.17-3.64"/></g><defs><clipPath id="a"><path fill="#fff" transform="rotate(-180 13.5 14)" d="M0 0h27v28H0z"/></clipPath></defs></svg>
